<svg width="260" height="220" viewBox="0 0 260 220" fill="none" xmlns="http://www.w3.org/2000/svg">
<path d="M256 78.1797V60.3945C256 55.5898 252.09 51.6797 247.285 51.6797C244.207 51.6797 241.314 50.4824 239.139 48.3105C236.963 46.1309 235.764 43.2363 235.764 40.1602V8.84375C235.764 3.9668 231.797 0 226.92 0H216.254C211.377 0 207.41 3.96875 207.41 8.84375V27.1738C207.41 38.5449 198.342 47.9473 187.197 48.1348C181.656 48.2207 176.391 46.1328 172.43 42.2363C168.467 38.3379 166.285 33.1309 166.285 27.5742V8.84375C166.285 3.9668 162.316 0 157.439 0H146.775C141.898 0 137.93 3.96875 137.93 8.84375V20.1445C137.93 22.2168 139.609 23.8945 141.68 23.8945C143.752 23.8945 145.43 22.2168 145.43 20.1445V8.84375C145.43 8.10352 146.033 7.5 146.775 7.5H157.439C158.182 7.5 158.785 8.10352 158.785 8.84375V27.5742C158.785 35.1582 161.764 42.2637 167.17 47.582C172.576 52.9004 179.732 55.7441 187.322 55.6348C202.535 55.377 214.91 42.6094 214.91 27.1738V8.84375C214.91 8.10352 215.514 7.5 216.254 7.5H226.92C227.66 7.5 228.264 8.10352 228.264 8.84375V40.1602C228.264 45.2363 230.24 50.0137 233.836 53.6133C237.432 57.2031 242.207 59.1797 247.285 59.1797C247.955 59.1797 248.5 59.7246 248.5 60.3945V75.8887L186.846 105.469L125.195 75.8906V60.3945C125.195 59.9805 125.389 59.6992 125.559 59.5293C125.689 59.3984 125.973 59.1797 126.41 59.1797C136.898 59.1797 145.43 50.6484 145.43 40.1602V35.1445C145.43 33.0742 143.752 31.3945 141.68 31.3945C139.609 31.3945 137.93 33.0742 137.93 35.1445V40.1602C137.93 46.5117 132.762 51.6797 126.41 51.6797C124.074 51.6797 121.883 52.5879 120.248 54.2324C118.602 55.8789 117.695 58.0684 117.695 60.3945V78.1211C117.693 78.2051 117.693 78.2891 117.695 78.373V140.684L98.4102 152.242C95.6934 150.684 92.584 149.844 89.4297 149.844H67.0547V85.0625H89.4297C99.3691 85.0625 107.455 76.9766 107.455 67.0371C107.455 57.0977 99.3691 49.0117 89.4297 49.0117H85.502V44.916C85.502 36.8008 78.8984 30.1992 70.7832 30.1992H67.0547V22.8496C67.0547 18.5762 63.5781 15.0996 59.3047 15.0996H48.1504C43.877 15.0996 40.4004 18.5762 40.4004 22.8496V30.1992H36.6719C28.5566 30.1992 21.9531 36.8008 21.9531 44.916V49.0117H18.0254C16.3789 49.0117 14.748 49.2344 13.1758 49.6719C11.1816 50.2285 10.0137 52.2969 10.5703 54.293C11.127 56.2871 13.1934 57.4512 15.1914 56.8965C16.1074 56.6406 17.0605 56.5117 18.0254 56.5117H89.4297C95.2344 56.5117 99.9551 61.2324 99.9551 67.0371C99.9551 72.8398 95.2344 77.5605 89.4297 77.5605H18.0254C12.2207 77.5605 7.5 72.8398 7.5 67.0371C7.5 66.4414 7.55078 65.8418 7.64844 65.2598C7.99414 63.2168 6.61914 61.2812 4.57812 60.9355C2.53711 60.5879 0.599609 61.9648 0.253906 64.0078C0.0859375 65.0039 0 66.0234 0 67.0371C0 76.9766 8.08594 85.0625 18.0254 85.0625H40.4004V149.844H18.0254C8.08594 149.844 0 157.93 0 167.869C0 172.678 1.87305 177.205 5.28125 180.619C8.68945 184.021 13.2168 185.895 18.0254 185.895H21.9551V189.988C21.9551 198.105 28.5566 204.709 36.6699 204.709H40.4004V212.059C40.4004 216.332 43.877 219.809 48.1504 219.809H59.3047C63.5781 219.809 67.0547 216.332 67.0547 212.059V204.709H67.2031C67.9785 205.727 68.832 206.693 69.7637 207.602C74.8008 212.521 81.334 215.025 87.9922 215.025H223.189C231.084 215.025 237.508 208.602 237.508 200.705V178.494H239.51C248.604 178.494 256 171.096 256 162.004V78.3086C256 78.2656 256 78.2227 256 78.1797ZM47.9004 22.8496C47.9004 22.7129 48.0117 22.5996 48.1504 22.5996H59.3047C59.4434 22.5996 59.5547 22.7129 59.5547 22.8496V30.1992H47.9004V22.8496ZM29.4531 49.0117V44.916C29.4531 40.9355 32.6914 37.6992 36.6719 37.6992H44.0723H44.1504H44.2266H63.2266H63.3047H63.3828H70.7832C74.7637 37.6992 78.002 40.9355 78.002 44.916V49.0117H29.4531ZM157.262 132.215C158.938 132.215 160.445 133.273 161.018 134.848C165.371 146.859 176.881 154.93 189.654 154.93C202.701 154.93 214.291 146.631 218.492 134.279C218.912 133.045 220.072 132.215 221.377 132.215H223.707C227.182 132.215 230.008 135.041 230.008 138.516V185.758H178.09L165.789 168.133C164.605 166.436 162.266 166.02 160.568 167.205C158.871 168.389 158.455 170.727 159.639 172.426L168.943 185.758H159.945L136.781 152.561L143.127 148.756L151.059 160.125C151.789 161.17 152.953 161.73 154.139 161.73C154.879 161.73 155.627 161.512 156.279 161.055C157.979 159.869 158.395 157.531 157.211 155.834L149.229 144.393C151.35 142.002 152.582 138.873 152.582 135.607V132.215H157.262ZM142.061 185.758L124.17 160.119L130.332 156.426L150.799 185.758H142.061ZM123.914 185.758L111.375 167.789L117.721 163.986L132.914 185.76H123.914V185.758ZM89.1836 166.516C89.375 166.863 89.5938 167.199 89.8379 167.518C92.3359 170.768 96.1211 172.508 99.9746 172.508C101.617 172.508 103.273 172.191 104.848 171.539L114.77 185.758H69.6621C70.584 180.486 73.7676 175.756 78.4277 172.965L89.1836 166.516ZM145.082 133.016V135.609C145.082 137.58 144.043 139.434 142.367 140.467C142.301 140.506 142.234 140.545 142.17 140.588L129.58 148.133C129.516 148.17 129.451 148.209 129.387 148.25L116.908 155.729C116.885 155.742 116.859 155.758 116.836 155.773L102.68 164.258C100.381 165.637 97.418 165.072 95.7832 162.947C95.7637 162.922 95.7031 162.842 95.7285 162.711C95.75 162.596 95.8184 162.543 95.8535 162.52L100.148 159.945C100.197 159.918 100.248 159.887 100.297 159.855L144.914 133.111C144.971 133.078 145.025 133.047 145.082 133.016ZM47.9004 85.0625H59.5547V149.844H47.9004V85.0625ZM29.4551 189.99V185.895H50.6406C52.7109 185.895 54.3906 184.217 54.3906 182.145C54.3906 180.074 52.7109 178.395 50.6406 178.395H18.0254C15.2168 178.395 12.5723 177.301 10.584 175.316C8.5957 173.322 7.5 170.678 7.5 167.869C7.5 162.066 12.2207 157.344 18.0254 157.344H89.4297C89.582 157.344 89.7324 157.348 89.8828 157.354L74.5723 166.531C66.748 171.221 61.8887 179.799 61.8887 188.922C61.8887 191.414 62.2402 193.826 62.8945 196.109C62.9023 196.139 62.9121 196.168 62.9199 196.197C62.9258 196.217 62.9316 196.236 62.9375 196.256C63.0293 196.576 63.1289 196.893 63.2344 197.209H36.6699C32.6914 197.209 29.4551 193.971 29.4551 189.99ZM59.5547 212.059C59.5547 212.195 59.4414 212.309 59.3047 212.309H48.1504C48.0137 212.309 47.9004 212.195 47.9004 212.059V204.709H59.5547V212.059ZM230.008 200.705C230.008 204.467 226.949 207.525 223.188 207.525C136.688 207.525 87.8945 207.529 87.4961 207.52C78.9492 207.295 71.8203 201.277 69.8984 193.258H121.865C121.898 193.26 121.93 193.26 121.963 193.26C121.996 193.26 122.029 193.26 122.062 193.258H140.01C140.043 193.26 140.074 193.26 140.107 193.26C140.141 193.26 140.174 193.26 140.207 193.258H157.895C157.928 193.26 157.961 193.26 157.992 193.26C158.025 193.26 158.059 193.26 158.092 193.258H176.039C176.072 193.26 176.104 193.26 176.137 193.26C176.17 193.26 176.203 193.26 176.236 193.258H230.008V200.705ZM239.51 170.994H237.508V138.516C237.508 130.906 231.316 124.715 223.707 124.715H221.377C216.859 124.715 212.848 127.588 211.391 131.863C208.225 141.174 199.488 147.428 189.654 147.428C180.023 147.428 171.35 141.346 168.066 132.293C166.424 127.76 162.082 124.715 157.26 124.715C148.9 124.93 145.715 123.895 141.059 126.68L125.193 136.188V84.209L185.223 113.01C185.736 113.256 186.291 113.379 186.846 113.379C187.4 113.379 187.955 113.256 188.467 113.01L248.498 84.207V162.004C248.5 166.961 244.467 170.994 239.51 170.994Z" fill="red" fill-opacity="1.00"/>
</svg>